<svg id="圖層_1" data-name="圖層 1" xmlns="http://www.w3.org/2000/svg" viewBox="0 0 1040 1040"><defs><style>.cls-1{fill:none;stroke:#fff;}</style></defs><title>UI-Design</title><path class="cls-1" d="M245.65,477.23Q234.46,493.68,226.81,507a196.46,196.46,0,0,0-11.48,22.78q-3.83,9.42-3.82,14,0,8.45,7.42,8.45,7.88,0,35.63-21.47l-.23,7.88q-32.09,32.77-47.05,32.77-17.81,0-17.81-18.5,0-11.07,10.85-31.4T233.43,469Q207.29,497.57,189.76,516T153.5,551.57l-8.11,7.71a35.19,35.19,0,0,1-7.31,5.48,16.28,16.28,0,0,1-8,2,14.07,14.07,0,0,1-11.19-5.25q-4.45-5.25-4.45-14.85,0-6.17,3.65-14.33a126.43,126.43,0,0,1,11.08-19q7.41-10.85,18.27-23.75,17.58-21.13,24.32-29.81c4.49-5.78,6.74-9.48,6.74-11.07,0-1.15-.61-1.72-1.83-1.72-1.45,0-3.86.67-7.25,2A129.1,129.1,0,0,0,156,455.48q-8.34,4.51-21.47,12.85a121.82,121.82,0,0,1-19.35,10q-9.54,3.82-13.42,3.82a5.86,5.86,0,0,1-3.83-1.25,4,4,0,0,1-1.54-3.2c0-1.83.8-4.81,2.4-9A94.91,94.91,0,0,1,105,455.82a60.71,60.71,0,0,1,6.8-10q8.22-9.13,22.5-16.1A149.23,149.23,0,0,1,163.66,419q15.08-3.78,24.9-3.77,7.31,0,10.67,2.45t3.37,8.05q0,12.22-3.08,18.9a130.46,130.46,0,0,1-10.28,17.3q-2.62,4.11-7.82,11.25t-10.51,13.93q-5.31,6.79-8.73,11.36t-7.08,10q-9.94,14.63-12.56,18.85c-1.76,2.81-2.63,5.25-2.63,7.3q0,4,3.77,4a10.78,10.78,0,0,0,6.62-2.45q3.19-2.46,13.71-11.6,12.09-10.38,23.52-21.81t20.78-21.75q9.36-10.33,23.75-26.78,16.11-18.72,20.56-23.41c3-3.12,5.4-4.68,7.31-4.68q2.51,0,4.51,4.05t2,11.37q0,3.88-3.94,10.33T245.65,477.23Z"/><path class="cls-1" d="M293.39,570.53l-7.08-5.14a3.81,3.81,0,0,1-1.6-2.85q0-1.49,5.36-10.28Q294,546,300.52,535t10.57-18q4-7.08,9.76-18.55T331.41,476q11.07-25.25,11.08-32.2,0-8.22-6.4-8.23-4.79,0-13.64,4.86a116.92,116.92,0,0,0-18.33,12.73,93.37,93.37,0,0,0-15.76,16.44q-6.28,8.57-6.28,15.08a2,2,0,0,0,.57,1.54,3.14,3.14,0,0,0,2.06.51q2.73,0,8.9-3.19c1.83-.92,2.74-.76,2.74.45s-2.89,4.36-8.67,9.42-10.05,7.6-12.79,7.6q-3.54,0-9.88-6.11t-6.34-11.14q0-1.94,3.54-9.25a139.89,139.89,0,0,1,9.71-16.5,102.81,102.81,0,0,1,13-15.93,96.26,96.26,0,0,1,18-14,111.52,111.52,0,0,1,19.41-9.59q9.32-3.44,15-3.43a15.11,15.11,0,0,1,12.85,6.22q4.62,6.22,4.62,17.42,0,14.83-11.65,42.93t-35.85,65.78c.22.76.49,1.58.8,2.45a7.65,7.65,0,0,1,.45,2.46,2.33,2.33,0,0,1-.34.86c-.23.41-.5.85-.8,1.31s-.5.76-.57.91l-8.34,13.71c-.91,1.59-1.86,2.39-2.85,2.39A3.07,3.07,0,0,1,293.39,570.53Z"/><path class="cls-1" d="M431.9,466.84c0,.54.49.8,1.49.8.68,0,3.78-.45,9.3-1.37a103.14,103.14,0,0,1,15-1.48,130,130,0,0,0-13,4.17c-3.62,1.41-7.35,3-11.19,4.68s-6.61,2.85-8.28,3.42a13.86,13.86,0,0,1-4.34.86q-5.82,0-5.83-7.54,0-19.41,9.82-27.29a76,76,0,0,1,12.85-7.59,180.39,180.39,0,0,1,20-8.34,197.1,197.1,0,0,1,24.49-6.79,126.23,126.23,0,0,1,26.38-2.86,74.7,74.7,0,0,1,24.55,3.88,52.21,52.21,0,0,1,18.73,10.91,47,47,0,0,1,11.59,17.19,61.17,61.17,0,0,1,4,22.83q0,19.31-11.13,37.46a115.33,115.33,0,0,1-29.69,32,153.58,153.58,0,0,1-41.85,22A139,139,0,0,1,439,571.9a20,20,0,0,1-6.68-.91,5.81,5.81,0,0,1-3.48-3.6,23.23,23.23,0,0,1-1-7.94,44.75,44.75,0,0,1,1-10.62,57.65,57.65,0,0,1,3.42-9.47q16.45-36.43,57.21-91.7a128.06,128.06,0,0,0-18,3.48q-9.82,2.57-18.61,5.65A159.56,159.56,0,0,0,438,462.73Q431.91,465.6,431.9,466.84ZM492.77,447c0,.16.15,1,.45,2.57a21.25,21.25,0,0,1,.46,4.06c0,1.75-.9,4.2-2.68,7.36s-5.31,8.78-10.57,16.85S470.69,493,467,499.05s-8.15,13.93-13.25,23.52q-2.4,4.56-3.31,6.17T447.49,534a41.52,41.52,0,0,0-2.91,6.28,13.42,13.42,0,0,0-.92,4c0,2,1.09,3.36,3.26,4.16a28.07,28.07,0,0,0,9.3,1.2A106.22,106.22,0,0,0,489.11,544a134.83,134.83,0,0,0,32.6-15.7,91.78,91.78,0,0,0,24.38-22.73q9.13-12.68,9.14-26.49,0-15.75-11.54-24.26t-33.57-8.51Q500.88,446.29,492.77,447Z"/><path class="cls-1" d="M591,535.36v2.85q0,6.75,3.31,10.51a11,11,0,0,0,8.68,3.77,28.85,28.85,0,0,0,11.59-2.63,63.1,63.1,0,0,0,11.93-7q5.94-4.35,14.51-11.65v7Q628.08,553.75,616.78,562t-22.95,8.28a19.09,19.09,0,0,1-16.11-7.88q-5.93-7.87-5.93-21.58a43,43,0,0,1,5.59-21.75q5.6-9.76,18.27-20.62a71.13,71.13,0,0,1,17.25-11.19q8.57-3.76,15.3-3.76c3.57,0,6.41.81,8.5,2.45s3.14,4.09,3.14,7.37q0,7.19-5.36,14.33t-16.39,14.16A168.36,168.36,0,0,1,591,535.36Zm1.14-7.42A65.17,65.17,0,0,0,609.7,518a50.52,50.52,0,0,0,10.79-11.36c2.32-3.62,3.48-6.26,3.48-7.94s-.8-2.62-2.4-2.62c-1.37,0-3.59.87-6.68,2.62a55.53,55.53,0,0,0-9.36,6.85,50.7,50.7,0,0,0-8.51,9.94A32.09,32.09,0,0,0,592.11,527.94Z"/><path class="cls-1" d="M640.53,534.44V531.7q29.46-31.05,40.54-43.5,2.5-14.06,12.1-14.05a11.61,11.61,0,0,1,5.14,1.37l.69,2.17a12.64,12.64,0,0,0-.46,3.88,36.18,36.18,0,0,0,1.66,8.05q1.65,5.89,2.57,9.88a41.2,41.2,0,0,1,.91,9A32.06,32.06,0,0,1,700.25,523a49,49,0,0,1-9.93,13.25,108.68,108.68,0,0,1-16.79,13,42.66,42.66,0,0,0,6.51.68,25.68,25.68,0,0,0,10.11-2.34,63.1,63.1,0,0,0,11.07-6.28q5.65-3.94,13.19-10.22v7.65Q699.8,553,688.26,560.31t-19.87,7.37q-10.73,0-19.87-9.14-5.37-5.47-6.68-10.51A56.15,56.15,0,0,1,640.53,534.44ZM683.12,517l-2-16.67q-7.08,8-30.26,30.72,6.86,1.49,9.36,4a62.91,62.91,0,0,1,7.08,9.7A27.65,27.65,0,0,0,679.18,536q4.17-5.55,4.17-15.13c0-.76,0-1.45-.05-2.06S683.2,517.58,683.12,517Z"/><path class="cls-1" d="M768.54,531.25v8.33q-11.09,14.28-20.67,21.53t-16.33,7.25q-9.36,0-13.93-9.82A50.21,50.21,0,0,1,713,537.07a38.6,38.6,0,0,1,.92-8.51,31.56,31.56,0,0,1,2.17-6.68q1.25-2.62,4.68-8.22Q737,488.43,750.5,488.43q7,0,7,5.36,0,3.66-4.51,11.42t-8.05,11.08a181.34,181.34,0,0,0-13,13.36,13.29,13.29,0,0,0-3,8.56,8.79,8.79,0,0,0,3.08,6.86,11.6,11.6,0,0,0,8,2.74q5.37,0,11.82-3.94A146.74,146.74,0,0,0,768.54,531.25Zm-7.77-51.05a8.27,8.27,0,0,1-5.42-2.17,6.86,6.86,0,0,1-2.57-5.48q0-5,4.8-11.19c3.19-4.11,6.51-6.16,9.93-6.16a8.06,8.06,0,0,1,5.71,2.11,7.92,7.92,0,0,1,2.29,6.11q0,4.9-4.69,10.85T760.77,480.2Z"/><path class="cls-1" d="M858.3,538.9l-37.92,31.17q-16,27.64-29.12,41.28T771.74,625q-3.43,0-3.43-4.23,0-8.22,8.34-21a84.82,84.82,0,0,1,7.59-9.82q4.29-4.79,8.11-8.28T802.46,573q6.27-5.21,8.56-7.14,11.41-23.29,16.44-35.63Q816.73,541.64,808.74,549a90.91,90.91,0,0,1-14.68,11.25q-6.67,3.93-12,3.94-5.82,0-10.73-9.31a40.58,40.58,0,0,1-4.91-19.13,24.72,24.72,0,0,1,2.11-9.59,47.38,47.38,0,0,1,6.63-10.74,86.68,86.68,0,0,1,11.47-11.7A123.54,123.54,0,0,1,802.91,492q17.7-11.09,27.52-11.08,7.3,0,7.31,5.37,0,7.42-15.87,14.5A101.32,101.32,0,0,0,802.63,512a72.44,72.44,0,0,0-15.42,14.79q-5.88,7.82-5.88,14.1a7.55,7.55,0,0,0,1.48,4.91,4.77,4.77,0,0,0,3.89,1.83q4,0,9.13-3.66A174.34,174.34,0,0,0,811,531a137,137,0,0,0,12.16-13.65A187.87,187.87,0,0,1,835.74,503q5-5,9-5a5,5,0,0,1,3.71,1.43,5.64,5.64,0,0,1,1.43,4.16q0,5.26-4.17,15.25t-15,32.71l27.64-20.09Z"/><path class="cls-1" d="M934.46,510.58q-20.1,22.38-20.1,31.17c0,3.28,1.33,4.91,4,4.91q3.32,0,8.62-3.48t16.62-12.39v7.88q-16.22,16-24.9,23.07t-14.16,7.08q-9.36,0-9.36-12.34a23.34,23.34,0,0,1,1.14-7.19,48,48,0,0,1,3.14-7.37q2-3.82,6.11-11t9.48-16.16q-6.51,3.32-16.33,13.14a128.26,128.26,0,0,0-10.85,11.7q-4.46,5.54-9.53,12.33a97.14,97.14,0,0,1-7.43,9.14,6.79,6.79,0,0,1-4.74,2.34q-3.64,0-6.73-7.65A47.36,47.36,0,0,1,856.35,538a27.14,27.14,0,0,1,1.43-9.82,66.68,66.68,0,0,1,5.65-10Q871.32,506,877,500.36t11-5.65a12,12,0,0,1,5.88,1.25,4.16,4.16,0,0,1,2.22,3.88,5,5,0,0,1-.68,2.4,14.54,14.54,0,0,1-1.54,2.29q-.86,1-3.6,4-18,20-18,25.92c0,2.21.72,3.32,2.17,3.32q1.36,0,5.31-4.4t10.16-11.53a186,186,0,0,1,14.73-14.91A158.33,158.33,0,0,1,924,492q6-4.23,10-4.23c1.22,0,2.42,1.68,3.6,5a30.46,30.46,0,0,1,1.77,10.17Q939.37,505.44,934.46,510.58Z"/></svg>